<mxfile host="app.diagrams.net" modified="2023-12-12T09:15:26.532Z" agent="Mozilla/5.0 (Macintosh; Intel Mac OS X 10_15_7) AppleWebKit/605.1.15 (KHTML, like Gecko) Version/16.3 Safari/605.1.15" etag="0KPGVDD8S9L0INn61noF" version="22.1.7" type="github">
  <diagram name="Page-1" id="C3etkYJQRbJDHmzJr5lA">
    <mxGraphModel dx="5898" dy="2754" grid="1" gridSize="10" guides="1" tooltips="1" connect="1" arrows="1" fold="1" page="1" pageScale="1" pageWidth="850" pageHeight="1100" math="0" shadow="0">
      <root>
        <mxCell id="0" />
        <mxCell id="1" parent="0" />
        <mxCell id="Hrsj-LzK0s0wFTvQX_O0-35" value="&lt;font style=&quot;font-size: 20px;&quot;&gt;Openshift&lt;/font&gt;" style="fontStyle=0;verticalAlign=top;align=center;spacingTop=-2;fillColor=none;rounded=0;whiteSpace=wrap;html=1;strokeColor=#00882B;strokeWidth=2;dashed=1;container=1;collapsible=0;expand=0;recursiveResize=0;" parent="1" vertex="1">
          <mxGeometry x="730" y="-136" width="360" height="760" as="geometry" />
        </mxCell>
        <mxCell id="Hrsj-LzK0s0wFTvQX_O0-19" value="Cleaner" style="sketch=0;html=1;dashed=0;whitespace=wrap;fillColor=#2875E2;strokeColor=#ffffff;points=[[0.005,0.63,0],[0.1,0.2,0],[0.9,0.2,0],[0.5,0,0],[0.995,0.63,0],[0.72,0.99,0],[0.5,1,0],[0.28,0.99,0]];verticalLabelPosition=bottom;align=center;verticalAlign=top;shape=mxgraph.kubernetes.icon;prIcon=cronjob" parent="Hrsj-LzK0s0wFTvQX_O0-35" vertex="1">
          <mxGeometry x="240" y="616" width="50" height="48" as="geometry" />
        </mxCell>
        <mxCell id="Hrsj-LzK0s0wFTvQX_O0-103" value="Kubernetes" style="image;sketch=0;aspect=fixed;html=1;points=[];align=center;fontSize=12;image=img/lib/mscae/Kubernetes.svg;" parent="Hrsj-LzK0s0wFTvQX_O0-35" vertex="1">
          <mxGeometry x="230" y="40" width="50" height="48" as="geometry" />
        </mxCell>
        <mxCell id="Hrsj-LzK0s0wFTvQX_O0-18" value="Openshift" style="image;sketch=0;aspect=fixed;html=1;points=[];align=center;fontSize=12;image=img/lib/mscae/OpenShift.svg;" parent="Hrsj-LzK0s0wFTvQX_O0-35" vertex="1">
          <mxGeometry x="60" y="46" width="50" height="46" as="geometry" />
        </mxCell>
        <mxCell id="Hrsj-LzK0s0wFTvQX_O0-104" value="Temp Cleaner" style="sketch=0;html=1;dashed=0;whitespace=wrap;fillColor=#2875E2;strokeColor=#ffffff;points=[[0.005,0.63,0],[0.1,0.2,0],[0.9,0.2,0],[0.5,0,0],[0.995,0.63,0],[0.72,0.99,0],[0.5,1,0],[0.28,0.99,0]];verticalLabelPosition=bottom;align=center;verticalAlign=top;shape=mxgraph.kubernetes.icon;prIcon=cronjob" parent="Hrsj-LzK0s0wFTvQX_O0-35" vertex="1">
          <mxGeometry x="240" y="486" width="50" height="48" as="geometry" />
        </mxCell>
        <mxCell id="Hrsj-LzK0s0wFTvQX_O0-105" value="OOM Controlled" style="sketch=0;html=1;dashed=0;whitespace=wrap;fillColor=#2875E2;strokeColor=#ffffff;points=[[0.005,0.63,0],[0.1,0.2,0],[0.9,0.2,0],[0.5,0,0],[0.995,0.63,0],[0.72,0.99,0],[0.5,1,0],[0.28,0.99,0]];verticalLabelPosition=bottom;align=center;verticalAlign=top;shape=mxgraph.kubernetes.icon;prIcon=cronjob" parent="Hrsj-LzK0s0wFTvQX_O0-35" vertex="1">
          <mxGeometry x="240" y="356" width="50" height="48" as="geometry" />
        </mxCell>
        <mxCell id="Hrsj-LzK0s0wFTvQX_O0-112" value="&lt;font style=&quot;font-size: 20px;&quot;&gt;CronJobs&lt;/font&gt;" style="fontStyle=0;verticalAlign=top;align=center;spacingTop=-2;fillColor=none;rounded=0;whiteSpace=wrap;html=1;strokeColor=#00882B;strokeWidth=2;dashed=1;container=1;collapsible=0;expand=0;recursiveResize=0;" parent="Hrsj-LzK0s0wFTvQX_O0-35" vertex="1">
          <mxGeometry x="200" y="323" width="130" height="374" as="geometry" />
        </mxCell>
        <mxCell id="Hrsj-LzK0s0wFTvQX_O0-96" style="edgeStyle=orthogonalEdgeStyle;rounded=0;orthogonalLoop=1;jettySize=auto;html=1;entryX=0.25;entryY=1;entryDx=0;entryDy=0;" parent="1" source="Hrsj-LzK0s0wFTvQX_O0-81" target="Hrsj-LzK0s0wFTvQX_O0-59" edge="1">
          <mxGeometry relative="1" as="geometry">
            <Array as="points">
              <mxPoint x="665" y="870" />
              <mxPoint x="223" y="870" />
            </Array>
          </mxGeometry>
        </mxCell>
        <mxCell id="Hrsj-LzK0s0wFTvQX_O0-81" value="&lt;font style=&quot;font-size: 20px;&quot;&gt;Monitoring&lt;/font&gt;" style="fontStyle=0;verticalAlign=top;align=center;spacingTop=-2;fillColor=none;rounded=0;whiteSpace=wrap;html=1;strokeColor=#00882B;strokeWidth=2;dashed=1;container=1;collapsible=0;expand=0;recursiveResize=0;" parent="1" vertex="1">
          <mxGeometry x="240" y="993" width="850" height="410" as="geometry" />
        </mxCell>
        <mxCell id="Hrsj-LzK0s0wFTvQX_O0-89" value="Promtail&lt;br&gt;Scrape Log File" style="verticalLabelPosition=bottom;html=1;verticalAlign=top;align=center;strokeColor=none;fillColor=#00BEF2;shape=mxgraph.azure.script_file;pointerEvents=1;" parent="Hrsj-LzK0s0wFTvQX_O0-81" vertex="1">
          <mxGeometry x="550" y="196.5" width="47.5" height="50" as="geometry" />
        </mxCell>
        <mxCell id="Hrsj-LzK0s0wFTvQX_O0-69" value="&lt;font style=&quot;font-size: 20px;&quot;&gt;Test Runner&lt;/font&gt;" style="fontStyle=0;verticalAlign=top;align=center;spacingTop=-2;fillColor=none;rounded=0;whiteSpace=wrap;html=1;strokeColor=#00882B;strokeWidth=2;dashed=1;container=1;collapsible=0;expand=0;recursiveResize=0;" parent="1" vertex="1">
          <mxGeometry x="-880" y="828" width="582" height="832" as="geometry" />
        </mxCell>
        <mxCell id="Hrsj-LzK0s0wFTvQX_O0-92" value="Streamlit Test Dashboard" style="shape=image;html=1;verticalAlign=top;verticalLabelPosition=bottom;labelBackgroundColor=#ffffff;imageAspect=0;aspect=fixed;image=https://cdn2.iconfinder.com/data/icons/whcompare-isometric-web-hosting-servers/50/browser-window-with-stats-128.png" parent="Hrsj-LzK0s0wFTvQX_O0-69" vertex="1">
          <mxGeometry x="190" y="592" width="128" height="128" as="geometry" />
        </mxCell>
        <mxCell id="Hrsj-LzK0s0wFTvQX_O0-54" value="Apache Airflow" style="sketch=0;points=[[0,0,0],[0.25,0,0],[0.5,0,0],[0.75,0,0],[1,0,0],[0,1,0],[0.25,1,0],[0.5,1,0],[0.75,1,0],[1,1,0],[0,0.25,0],[0,0.5,0],[0,0.75,0],[1,0.25,0],[1,0.5,0],[1,0.75,0]];outlineConnect=0;fontColor=#232F3E;fillColor=#E7157B;strokeColor=#ffffff;dashed=0;verticalLabelPosition=bottom;verticalAlign=top;align=center;html=1;fontSize=12;fontStyle=0;aspect=fixed;shape=mxgraph.aws4.resourceIcon;resIcon=mxgraph.aws4.managed_workflows_for_apache_airflow;" parent="Hrsj-LzK0s0wFTvQX_O0-69" vertex="1">
          <mxGeometry x="70" y="143" width="78" height="78" as="geometry" />
        </mxCell>
        <mxCell id="Hrsj-LzK0s0wFTvQX_O0-102" style="edgeStyle=orthogonalEdgeStyle;rounded=0;orthogonalLoop=1;jettySize=auto;html=1;exitX=0.5;exitY=1;exitDx=0;exitDy=0;" parent="Hrsj-LzK0s0wFTvQX_O0-69" source="Hrsj-LzK0s0wFTvQX_O0-99" edge="1">
          <mxGeometry relative="1" as="geometry">
            <mxPoint x="254" y="612" as="targetPoint" />
          </mxGeometry>
        </mxCell>
        <mxCell id="Hrsj-LzK0s0wFTvQX_O0-99" value="" style="fontStyle=0;verticalAlign=top;align=center;spacingTop=-2;fillColor=none;rounded=0;whiteSpace=wrap;html=1;strokeColor=#00882B;strokeWidth=2;dashed=1;container=1;collapsible=0;expand=0;recursiveResize=0;" parent="Hrsj-LzK0s0wFTvQX_O0-69" vertex="1">
          <mxGeometry x="20" y="42" width="520" height="422" as="geometry" />
        </mxCell>
        <mxCell id="Hrsj-LzK0s0wFTvQX_O0-95" style="edgeStyle=orthogonalEdgeStyle;rounded=0;orthogonalLoop=1;jettySize=auto;html=1;" parent="1" source="Hrsj-LzK0s0wFTvQX_O0-1" target="Hrsj-LzK0s0wFTvQX_O0-69" edge="1">
          <mxGeometry relative="1" as="geometry" />
        </mxCell>
        <mxCell id="Hrsj-LzK0s0wFTvQX_O0-1" value="OBJECT STORAGE" style="sketch=0;outlineConnect=0;fontColor=#232F3E;gradientColor=none;fillColor=#7AA116;strokeColor=none;dashed=0;verticalLabelPosition=bottom;verticalAlign=top;align=center;html=1;fontSize=12;fontStyle=0;aspect=fixed;pointerEvents=1;shape=mxgraph.aws4.bucket_with_objects;" parent="1" vertex="1">
          <mxGeometry x="-626.5" y="-70" width="75" height="78" as="geometry" />
        </mxCell>
        <mxCell id="Hrsj-LzK0s0wFTvQX_O0-72" style="edgeStyle=orthogonalEdgeStyle;rounded=0;orthogonalLoop=1;jettySize=auto;html=1;entryX=0.5;entryY=1;entryDx=0;entryDy=0;" parent="1" source="Hrsj-LzK0s0wFTvQX_O0-2" target="Hrsj-LzK0s0wFTvQX_O0-59" edge="1">
          <mxGeometry relative="1" as="geometry" />
        </mxCell>
        <mxCell id="Hrsj-LzK0s0wFTvQX_O0-2" value="&lt;font style=&quot;font-size: 18px;&quot;&gt;Dataflow&lt;/font&gt;" style="outlineConnect=0;dashed=0;verticalLabelPosition=bottom;verticalAlign=top;align=center;html=1;shape=mxgraph.aws3.data_pipeline;fillColor=#F58534;gradientColor=none;" parent="1" vertex="1">
          <mxGeometry x="407.5" y="664" width="122.5" height="116" as="geometry" />
        </mxCell>
        <mxCell id="Hrsj-LzK0s0wFTvQX_O0-5" value="Experiments" style="outlineConnect=0;dashed=0;verticalLabelPosition=bottom;verticalAlign=top;align=center;html=1;shape=mxgraph.aws3.instances;fillColor=#F58534;gradientColor=none;" parent="1" vertex="1">
          <mxGeometry x="-445.5" y="908" width="60" height="63" as="geometry" />
        </mxCell>
        <mxCell id="Hrsj-LzK0s0wFTvQX_O0-11" value="" style="group" parent="1" vertex="1" connectable="0">
          <mxGeometry x="-220" y="154" width="135" height="100" as="geometry" />
        </mxCell>
        <mxCell id="Hrsj-LzK0s0wFTvQX_O0-7" value="" style="sketch=0;html=1;dashed=0;whitespace=wrap;fillColor=#2875E2;strokeColor=#ffffff;points=[[0.005,0.63,0],[0.1,0.2,0],[0.9,0.2,0],[0.5,0,0],[0.995,0.63,0],[0.72,0.99,0],[0.5,1,0],[0.28,0.99,0]];verticalLabelPosition=bottom;align=center;verticalAlign=top;shape=mxgraph.kubernetes.icon;prIcon=api" parent="Hrsj-LzK0s0wFTvQX_O0-11" vertex="1">
          <mxGeometry x="18.539999999999992" width="72.92" height="70" as="geometry" />
        </mxCell>
        <mxCell id="Hrsj-LzK0s0wFTvQX_O0-8" value="Backend Service (Django)" style="text;html=1;align=center;verticalAlign=middle;resizable=0;points=[];autosize=1;strokeColor=none;fillColor=none;" parent="Hrsj-LzK0s0wFTvQX_O0-11" vertex="1">
          <mxGeometry x="-25" y="70" width="160" height="30" as="geometry" />
        </mxCell>
        <mxCell id="Hrsj-LzK0s0wFTvQX_O0-12" value="" style="group" parent="1" vertex="1" connectable="0">
          <mxGeometry x="240" y="174" width="110" height="90" as="geometry" />
        </mxCell>
        <mxCell id="Hrsj-LzK0s0wFTvQX_O0-9" value="MASTER" style="sketch=0;html=1;dashed=0;whitespace=wrap;fillColor=#2875E2;strokeColor=#ffffff;points=[[0.005,0.63,0],[0.1,0.2,0],[0.9,0.2,0],[0.5,0,0],[0.995,0.63,0],[0.72,0.99,0],[0.5,1,0],[0.28,0.99,0]];verticalLabelPosition=bottom;align=center;verticalAlign=top;shape=mxgraph.kubernetes.icon;prIcon=master" parent="Hrsj-LzK0s0wFTvQX_O0-12" vertex="1">
          <mxGeometry width="62.5" height="60" as="geometry" />
        </mxCell>
        <mxCell id="Hrsj-LzK0s0wFTvQX_O0-17" style="edgeStyle=orthogonalEdgeStyle;rounded=0;orthogonalLoop=1;jettySize=auto;html=1;entryX=0;entryY=0.5;entryDx=0;entryDy=0;entryPerimeter=0;" parent="1" source="Hrsj-LzK0s0wFTvQX_O0-22" edge="1">
          <mxGeometry relative="1" as="geometry">
            <mxPoint x="529" y="219" as="sourcePoint" />
            <mxPoint x="770" y="65.5" as="targetPoint" />
          </mxGeometry>
        </mxCell>
        <mxCell id="Hrsj-LzK0s0wFTvQX_O0-22" value="Analyzer" style="sketch=0;outlineConnect=0;fontColor=#232F3E;gradientColor=none;fillColor=#ED7100;strokeColor=none;dashed=0;verticalLabelPosition=bottom;verticalAlign=top;align=center;html=1;fontSize=12;fontStyle=0;aspect=fixed;pointerEvents=1;shape=mxgraph.aws4.instance2;" parent="1" vertex="1">
          <mxGeometry x="500" y="24" width="60" height="60" as="geometry" />
        </mxCell>
        <mxCell id="Hrsj-LzK0s0wFTvQX_O0-31" style="edgeStyle=orthogonalEdgeStyle;rounded=0;orthogonalLoop=1;jettySize=auto;html=1;" parent="1" source="Hrsj-LzK0s0wFTvQX_O0-23" target="Hrsj-LzK0s0wFTvQX_O0-29" edge="1">
          <mxGeometry relative="1" as="geometry" />
        </mxCell>
        <mxCell id="Hrsj-LzK0s0wFTvQX_O0-23" value="Trainer" style="sketch=0;outlineConnect=0;fontColor=#232F3E;gradientColor=none;fillColor=#ED7100;strokeColor=none;dashed=0;verticalLabelPosition=bottom;verticalAlign=top;align=center;html=1;fontSize=12;fontStyle=0;aspect=fixed;pointerEvents=1;shape=mxgraph.aws4.instance2;" parent="1" vertex="1">
          <mxGeometry x="500" y="144" width="60" height="60" as="geometry" />
        </mxCell>
        <mxCell id="Hrsj-LzK0s0wFTvQX_O0-32" style="edgeStyle=orthogonalEdgeStyle;rounded=0;orthogonalLoop=1;jettySize=auto;html=1;" parent="1" source="Hrsj-LzK0s0wFTvQX_O0-24" target="Hrsj-LzK0s0wFTvQX_O0-30" edge="1">
          <mxGeometry relative="1" as="geometry" />
        </mxCell>
        <mxCell id="Hrsj-LzK0s0wFTvQX_O0-24" value="Deployer" style="sketch=0;outlineConnect=0;fontColor=#232F3E;gradientColor=none;fillColor=#ED7100;strokeColor=none;dashed=0;verticalLabelPosition=bottom;verticalAlign=top;align=center;html=1;fontSize=12;fontStyle=0;aspect=fixed;pointerEvents=1;shape=mxgraph.aws4.instance2;" parent="1" vertex="1">
          <mxGeometry x="500" y="264" width="60" height="60" as="geometry" />
        </mxCell>
        <mxCell id="Hrsj-LzK0s0wFTvQX_O0-34" style="edgeStyle=orthogonalEdgeStyle;rounded=0;orthogonalLoop=1;jettySize=auto;html=1;" parent="1" source="Hrsj-LzK0s0wFTvQX_O0-27" target="Hrsj-LzK0s0wFTvQX_O0-33" edge="1">
          <mxGeometry relative="1" as="geometry">
            <Array as="points">
              <mxPoint x="530" y="523" />
            </Array>
          </mxGeometry>
        </mxCell>
        <mxCell id="Hrsj-LzK0s0wFTvQX_O0-27" value="RunPipeline" style="sketch=0;outlineConnect=0;fontColor=#232F3E;gradientColor=none;fillColor=#ED7100;strokeColor=none;dashed=0;verticalLabelPosition=bottom;verticalAlign=top;align=center;html=1;fontSize=12;fontStyle=0;aspect=fixed;pointerEvents=1;shape=mxgraph.aws4.instance2;" parent="1" vertex="1">
          <mxGeometry x="500" y="394" width="60" height="60" as="geometry" />
        </mxCell>
        <mxCell id="Hrsj-LzK0s0wFTvQX_O0-28" value="Analyzer Pods" style="sketch=0;outlineConnect=0;fontColor=#232F3E;gradientColor=none;fillColor=#E7157B;strokeColor=none;dashed=0;verticalLabelPosition=bottom;verticalAlign=top;align=center;html=1;fontSize=12;fontStyle=0;aspect=fixed;pointerEvents=1;shape=mxgraph.aws4.instances_2;" parent="1" vertex="1">
          <mxGeometry x="800" y="24" width="60" height="60" as="geometry" />
        </mxCell>
        <mxCell id="Hrsj-LzK0s0wFTvQX_O0-29" value="Trainer Pods" style="sketch=0;outlineConnect=0;fontColor=#232F3E;gradientColor=none;fillColor=#E7157B;strokeColor=none;dashed=0;verticalLabelPosition=bottom;verticalAlign=top;align=center;html=1;fontSize=12;fontStyle=0;aspect=fixed;pointerEvents=1;shape=mxgraph.aws4.instances_2;" parent="1" vertex="1">
          <mxGeometry x="810" y="174" width="60" height="60" as="geometry" />
        </mxCell>
        <mxCell id="Hrsj-LzK0s0wFTvQX_O0-30" value="Model Service Pods" style="sketch=0;outlineConnect=0;fontColor=#232F3E;gradientColor=none;fillColor=#E7157B;strokeColor=none;dashed=0;verticalLabelPosition=bottom;verticalAlign=top;align=center;html=1;fontSize=12;fontStyle=0;aspect=fixed;pointerEvents=1;shape=mxgraph.aws4.instances_2;" parent="1" vertex="1">
          <mxGeometry x="810" y="324" width="60" height="60" as="geometry" />
        </mxCell>
        <mxCell id="Hrsj-LzK0s0wFTvQX_O0-33" value="Dataflow Pods" style="sketch=0;outlineConnect=0;fontColor=#232F3E;gradientColor=none;fillColor=#E7157B;strokeColor=none;dashed=0;verticalLabelPosition=bottom;verticalAlign=top;align=center;html=1;fontSize=12;fontStyle=0;aspect=fixed;pointerEvents=1;shape=mxgraph.aws4.instances_2;" parent="1" vertex="1">
          <mxGeometry x="810" y="465" width="60" height="60" as="geometry" />
        </mxCell>
        <mxCell id="Hrsj-LzK0s0wFTvQX_O0-63" style="edgeStyle=orthogonalEdgeStyle;rounded=0;orthogonalLoop=1;jettySize=auto;html=1;startArrow=classic;startFill=1;" parent="1" source="Hrsj-LzK0s0wFTvQX_O0-37" target="Hrsj-LzK0s0wFTvQX_O0-59" edge="1">
          <mxGeometry relative="1" as="geometry" />
        </mxCell>
        <mxCell id="Hrsj-LzK0s0wFTvQX_O0-37" value="PostgreSQL" style="image;aspect=fixed;html=1;points=[];align=center;fontSize=12;image=img/lib/azure2/databases/Azure_Database_PostgreSQL_Server.svg;" parent="1" vertex="1">
          <mxGeometry x="-60" y="-200" width="48" height="64" as="geometry" />
        </mxCell>
        <mxCell id="Hrsj-LzK0s0wFTvQX_O0-61" style="edgeStyle=orthogonalEdgeStyle;rounded=0;orthogonalLoop=1;jettySize=auto;html=1;startArrow=classic;startFill=1;" parent="1" source="Hrsj-LzK0s0wFTvQX_O0-38" target="Hrsj-LzK0s0wFTvQX_O0-8" edge="1">
          <mxGeometry relative="1" as="geometry" />
        </mxCell>
        <mxCell id="Hrsj-LzK0s0wFTvQX_O0-62" style="edgeStyle=orthogonalEdgeStyle;rounded=0;orthogonalLoop=1;jettySize=auto;html=1;entryX=0;entryY=0.5;entryDx=0;entryDy=0;" parent="1" source="Hrsj-LzK0s0wFTvQX_O0-38" target="Hrsj-LzK0s0wFTvQX_O0-59" edge="1">
          <mxGeometry relative="1" as="geometry" />
        </mxCell>
        <mxCell id="Hrsj-LzK0s0wFTvQX_O0-38" value="Redis" style="image;sketch=0;aspect=fixed;html=1;points=[];align=center;fontSize=12;image=img/lib/mscae/Cache_Redis_Product.svg;" parent="1" vertex="1">
          <mxGeometry x="-190" y="434" width="50" height="42" as="geometry" />
        </mxCell>
        <mxCell id="Hrsj-LzK0s0wFTvQX_O0-47" value="Kafka" style="sketch=0;points=[[0,0,0],[0.25,0,0],[0.5,0,0],[0.75,0,0],[1,0,0],[0,1,0],[0.25,1,0],[0.5,1,0],[0.75,1,0],[1,1,0],[0,0.25,0],[0,0.5,0],[0,0.75,0],[1,0.25,0],[1,0.5,0],[1,0.75,0]];outlineConnect=0;fontColor=#232F3E;fillColor=#8C4FFF;strokeColor=#ffffff;dashed=0;verticalLabelPosition=bottom;verticalAlign=top;align=center;html=1;fontSize=12;fontStyle=0;aspect=fixed;shape=mxgraph.aws4.resourceIcon;resIcon=mxgraph.aws4.managed_streaming_for_kafka;" parent="1" vertex="1">
          <mxGeometry x="170" y="174" width="60" height="60" as="geometry" />
        </mxCell>
        <mxCell id="Hrsj-LzK0s0wFTvQX_O0-50" style="edgeStyle=orthogonalEdgeStyle;rounded=0;orthogonalLoop=1;jettySize=auto;html=1;exitX=1;exitY=0.5;exitDx=0;exitDy=0;" parent="1" source="Hrsj-LzK0s0wFTvQX_O0-48" target="Hrsj-LzK0s0wFTvQX_O0-27" edge="1">
          <mxGeometry relative="1" as="geometry">
            <Array as="points">
              <mxPoint x="360" y="424" />
            </Array>
          </mxGeometry>
        </mxCell>
        <mxCell id="Hrsj-LzK0s0wFTvQX_O0-51" style="edgeStyle=orthogonalEdgeStyle;rounded=0;orthogonalLoop=1;jettySize=auto;html=1;exitX=1;exitY=0.5;exitDx=0;exitDy=0;" parent="1" source="Hrsj-LzK0s0wFTvQX_O0-48" target="Hrsj-LzK0s0wFTvQX_O0-22" edge="1">
          <mxGeometry relative="1" as="geometry">
            <Array as="points">
              <mxPoint x="360" y="54" />
            </Array>
          </mxGeometry>
        </mxCell>
        <mxCell id="Hrsj-LzK0s0wFTvQX_O0-52" style="edgeStyle=orthogonalEdgeStyle;rounded=0;orthogonalLoop=1;jettySize=auto;html=1;exitX=1;exitY=0.5;exitDx=0;exitDy=0;" parent="1" source="Hrsj-LzK0s0wFTvQX_O0-48" target="Hrsj-LzK0s0wFTvQX_O0-23" edge="1">
          <mxGeometry relative="1" as="geometry" />
        </mxCell>
        <mxCell id="Hrsj-LzK0s0wFTvQX_O0-53" style="edgeStyle=orthogonalEdgeStyle;rounded=0;orthogonalLoop=1;jettySize=auto;html=1;exitX=1;exitY=0.5;exitDx=0;exitDy=0;" parent="1" source="Hrsj-LzK0s0wFTvQX_O0-48" target="Hrsj-LzK0s0wFTvQX_O0-24" edge="1">
          <mxGeometry relative="1" as="geometry" />
        </mxCell>
        <mxCell id="Hrsj-LzK0s0wFTvQX_O0-48" value="" style="fontStyle=0;verticalAlign=top;align=center;spacingTop=-2;fillColor=none;rounded=0;whiteSpace=wrap;html=1;strokeColor=#00882B;strokeWidth=2;dashed=1;container=1;collapsible=0;expand=0;recursiveResize=0;" parent="1" vertex="1">
          <mxGeometry x="130" y="154" width="220" height="120" as="geometry" />
        </mxCell>
        <mxCell id="Hrsj-LzK0s0wFTvQX_O0-66" style="edgeStyle=orthogonalEdgeStyle;rounded=0;orthogonalLoop=1;jettySize=auto;html=1;" parent="1" source="Hrsj-LzK0s0wFTvQX_O0-54" target="Hrsj-LzK0s0wFTvQX_O0-5" edge="1">
          <mxGeometry relative="1" as="geometry" />
        </mxCell>
        <mxCell id="Hrsj-LzK0s0wFTvQX_O0-57" style="edgeStyle=orthogonalEdgeStyle;rounded=0;orthogonalLoop=1;jettySize=auto;html=1;exitX=0.995;exitY=0.63;exitDx=0;exitDy=0;exitPerimeter=0;entryX=0;entryY=0.5;entryDx=0;entryDy=0;" parent="1" source="Hrsj-LzK0s0wFTvQX_O0-7" target="Hrsj-LzK0s0wFTvQX_O0-48" edge="1">
          <mxGeometry relative="1" as="geometry" />
        </mxCell>
        <mxCell id="Hrsj-LzK0s0wFTvQX_O0-58" style="edgeStyle=orthogonalEdgeStyle;rounded=0;orthogonalLoop=1;jettySize=auto;html=1;exitX=0.5;exitY=0;exitDx=0;exitDy=0;exitPerimeter=0;entryX=0.479;entryY=1.001;entryDx=0;entryDy=0;entryPerimeter=0;startArrow=classic;startFill=1;" parent="1" source="Hrsj-LzK0s0wFTvQX_O0-7" target="Hrsj-LzK0s0wFTvQX_O0-37" edge="1">
          <mxGeometry relative="1" as="geometry" />
        </mxCell>
        <mxCell id="Hrsj-LzK0s0wFTvQX_O0-59" value="&lt;font style=&quot;font-size: 20px;&quot;&gt;WORKER&lt;/font&gt;" style="fontStyle=0;verticalAlign=top;align=center;spacingTop=-2;fillColor=none;rounded=0;whiteSpace=wrap;html=1;strokeColor=#00882B;strokeWidth=2;dashed=1;container=1;collapsible=0;expand=0;recursiveResize=0;" parent="1" vertex="1">
          <mxGeometry x="90" y="-36" width="530" height="590" as="geometry" />
        </mxCell>
        <mxCell id="Hrsj-LzK0s0wFTvQX_O0-64" value="Data Analysis" style="outlineConnect=0;dashed=0;verticalLabelPosition=bottom;verticalAlign=top;align=center;html=1;shape=mxgraph.aws3.instances;fillColor=#F58534;gradientColor=none;" parent="1" vertex="1">
          <mxGeometry x="-445.5" y="1048" width="60" height="63" as="geometry" />
        </mxCell>
        <mxCell id="Hrsj-LzK0s0wFTvQX_O0-65" value="Run Pipeline" style="outlineConnect=0;dashed=0;verticalLabelPosition=bottom;verticalAlign=top;align=center;html=1;shape=mxgraph.aws3.instances;fillColor=#F58534;gradientColor=none;" parent="1" vertex="1">
          <mxGeometry x="-445.5" y="1178" width="60" height="63" as="geometry" />
        </mxCell>
        <mxCell id="Hrsj-LzK0s0wFTvQX_O0-67" style="edgeStyle=orthogonalEdgeStyle;rounded=0;orthogonalLoop=1;jettySize=auto;html=1;exitX=1;exitY=0.5;exitDx=0;exitDy=0;exitPerimeter=0;entryX=0;entryY=0.5;entryDx=0;entryDy=0;entryPerimeter=0;" parent="1" source="Hrsj-LzK0s0wFTvQX_O0-54" target="Hrsj-LzK0s0wFTvQX_O0-64" edge="1">
          <mxGeometry relative="1" as="geometry" />
        </mxCell>
        <mxCell id="Hrsj-LzK0s0wFTvQX_O0-73" style="edgeStyle=orthogonalEdgeStyle;rounded=0;orthogonalLoop=1;jettySize=auto;html=1;exitX=0.1;exitY=0.5;exitDx=0;exitDy=0;exitPerimeter=0;entryX=0.005;entryY=0.63;entryDx=0;entryDy=0;entryPerimeter=0;" parent="1" source="Hrsj-LzK0s0wFTvQX_O0-2" target="Hrsj-LzK0s0wFTvQX_O0-7" edge="1">
          <mxGeometry relative="1" as="geometry" />
        </mxCell>
        <mxCell id="Hrsj-LzK0s0wFTvQX_O0-83" style="edgeStyle=orthogonalEdgeStyle;rounded=0;orthogonalLoop=1;jettySize=auto;html=1;" parent="1" source="Hrsj-LzK0s0wFTvQX_O0-75" target="Hrsj-LzK0s0wFTvQX_O0-77" edge="1">
          <mxGeometry relative="1" as="geometry" />
        </mxCell>
        <mxCell id="Hrsj-LzK0s0wFTvQX_O0-75" value="Grafana" style="image;aspect=fixed;html=1;points=[];align=center;fontSize=12;image=img/lib/azure2/other/Grafana.svg;" parent="1" vertex="1">
          <mxGeometry x="369.99999999999994" y="1053" width="90.15" height="70" as="geometry" />
        </mxCell>
        <mxCell id="Hrsj-LzK0s0wFTvQX_O0-77" value="Stats" style="shape=image;html=1;verticalAlign=top;verticalLabelPosition=bottom;labelBackgroundColor=#ffffff;imageAspect=0;aspect=fixed;image=https://cdn2.iconfinder.com/data/icons/whcompare-isometric-web-hosting-servers/50/browser-window-with-stats-128.png" parent="1" vertex="1">
          <mxGeometry x="350" y="1203" width="128" height="128" as="geometry" />
        </mxCell>
        <mxCell id="Hrsj-LzK0s0wFTvQX_O0-78" value="Prometheus" style="sketch=0;points=[[0,0,0],[0.25,0,0],[0.5,0,0],[0.75,0,0],[1,0,0],[0,1,0],[0.25,1,0],[0.5,1,0],[0.75,1,0],[1,1,0],[0,0.25,0],[0,0.5,0],[0,0.75,0],[1,0.25,0],[1,0.5,0],[1,0.75,0]];points=[[0,0,0],[0.25,0,0],[0.5,0,0],[0.75,0,0],[1,0,0],[0,1,0],[0.25,1,0],[0.5,1,0],[0.75,1,0],[1,1,0],[0,0.25,0],[0,0.5,0],[0,0.75,0],[1,0.25,0],[1,0.5,0],[1,0.75,0]];outlineConnect=0;fontColor=#232F3E;fillColor=#E7157B;strokeColor=#ffffff;dashed=0;verticalLabelPosition=bottom;verticalAlign=top;align=center;html=1;fontSize=12;fontStyle=0;aspect=fixed;shape=mxgraph.aws4.resourceIcon;resIcon=mxgraph.aws4.managed_service_for_prometheus;" parent="1" vertex="1">
          <mxGeometry x="690" y="1073" width="78" height="78" as="geometry" />
        </mxCell>
        <mxCell id="Hrsj-LzK0s0wFTvQX_O0-80" value="Loki Logging" style="outlineConnect=0;dashed=0;verticalLabelPosition=bottom;verticalAlign=top;align=center;html=1;shape=mxgraph.aws3.flow_logs;fillColor=#F58536;gradientColor=none;" parent="1" vertex="1">
          <mxGeometry x="580" y="1263" width="69" height="72" as="geometry" />
        </mxCell>
        <mxCell id="Hrsj-LzK0s0wFTvQX_O0-82" style="edgeStyle=orthogonalEdgeStyle;rounded=0;orthogonalLoop=1;jettySize=auto;html=1;entryX=0;entryY=0.5;entryDx=0;entryDy=0;entryPerimeter=0;" parent="1" source="Hrsj-LzK0s0wFTvQX_O0-75" target="Hrsj-LzK0s0wFTvQX_O0-78" edge="1">
          <mxGeometry relative="1" as="geometry" />
        </mxCell>
        <mxCell id="Hrsj-LzK0s0wFTvQX_O0-84" style="edgeStyle=orthogonalEdgeStyle;rounded=0;orthogonalLoop=1;jettySize=auto;html=1;exitX=0.5;exitY=1;exitDx=0;exitDy=0;exitPerimeter=0;" parent="1" source="Hrsj-LzK0s0wFTvQX_O0-78" target="Hrsj-LzK0s0wFTvQX_O0-78" edge="1">
          <mxGeometry relative="1" as="geometry" />
        </mxCell>
        <mxCell id="Hrsj-LzK0s0wFTvQX_O0-85" style="edgeStyle=orthogonalEdgeStyle;rounded=0;orthogonalLoop=1;jettySize=auto;html=1;entryX=0;entryY=0.5;entryDx=0;entryDy=0;entryPerimeter=0;" parent="1" source="Hrsj-LzK0s0wFTvQX_O0-75" target="Hrsj-LzK0s0wFTvQX_O0-80" edge="1">
          <mxGeometry relative="1" as="geometry" />
        </mxCell>
        <mxCell id="Hrsj-LzK0s0wFTvQX_O0-90" style="edgeStyle=orthogonalEdgeStyle;rounded=0;orthogonalLoop=1;jettySize=auto;html=1;" parent="1" source="Hrsj-LzK0s0wFTvQX_O0-89" target="Hrsj-LzK0s0wFTvQX_O0-80" edge="1">
          <mxGeometry relative="1" as="geometry" />
        </mxCell>
        <mxCell id="Hrsj-LzK0s0wFTvQX_O0-91" style="edgeStyle=orthogonalEdgeStyle;rounded=0;orthogonalLoop=1;jettySize=auto;html=1;exitX=1;exitY=0.5;exitDx=0;exitDy=0;exitPerimeter=0;entryX=0;entryY=0.5;entryDx=0;entryDy=0;entryPerimeter=0;" parent="1" source="Hrsj-LzK0s0wFTvQX_O0-54" target="Hrsj-LzK0s0wFTvQX_O0-65" edge="1">
          <mxGeometry relative="1" as="geometry" />
        </mxCell>
        <mxCell id="Hrsj-LzK0s0wFTvQX_O0-93" style="edgeStyle=orthogonalEdgeStyle;rounded=0;orthogonalLoop=1;jettySize=auto;html=1;entryX=0.002;entryY=0.151;entryDx=0;entryDy=0;entryPerimeter=0;" parent="1" source="Hrsj-LzK0s0wFTvQX_O0-1" target="Hrsj-LzK0s0wFTvQX_O0-59" edge="1">
          <mxGeometry relative="1" as="geometry" />
        </mxCell>
        <mxCell id="Hrsj-LzK0s0wFTvQX_O0-94" style="edgeStyle=orthogonalEdgeStyle;rounded=0;orthogonalLoop=1;jettySize=auto;html=1;entryX=0.005;entryY=0.63;entryDx=0;entryDy=0;entryPerimeter=0;" parent="1" source="Hrsj-LzK0s0wFTvQX_O0-1" target="Hrsj-LzK0s0wFTvQX_O0-7" edge="1">
          <mxGeometry relative="1" as="geometry" />
        </mxCell>
        <mxCell id="Hrsj-LzK0s0wFTvQX_O0-97" value="Frontend(React)" style="outlineConnect=0;dashed=0;verticalLabelPosition=bottom;verticalAlign=top;align=center;html=1;shape=mxgraph.aws3.stack_aws_cloudformation;fillColor=#759C3E;gradientColor=none;fontSize=19;" parent="1" vertex="1">
          <mxGeometry x="-940" y="176" width="123.13" height="98" as="geometry" />
        </mxCell>
        <mxCell id="Hrsj-LzK0s0wFTvQX_O0-98" style="edgeStyle=orthogonalEdgeStyle;rounded=0;orthogonalLoop=1;jettySize=auto;html=1;exitX=1;exitY=0.5;exitDx=0;exitDy=0;exitPerimeter=0;entryX=0.005;entryY=0.63;entryDx=0;entryDy=0;entryPerimeter=0;" parent="1" source="Hrsj-LzK0s0wFTvQX_O0-97" target="Hrsj-LzK0s0wFTvQX_O0-7" edge="1">
          <mxGeometry relative="1" as="geometry" />
        </mxCell>
        <mxCell id="Hrsj-LzK0s0wFTvQX_O0-114" value="Text" style="text;html=1;align=center;verticalAlign=middle;resizable=0;points=[];autosize=1;strokeColor=none;fillColor=none;" parent="1" vertex="1">
          <mxGeometry x="-1740" y="370" width="50" height="30" as="geometry" />
        </mxCell>
        <mxCell id="Hrsj-LzK0s0wFTvQX_O0-115" value="Text" style="text;html=1;align=center;verticalAlign=middle;resizable=0;points=[];autosize=1;strokeColor=none;fillColor=none;" parent="1" vertex="1">
          <mxGeometry x="1880" y="440" width="50" height="30" as="geometry" />
        </mxCell>
        <mxCell id="wBa-HJRu5GUup8bWzJsI-1" value="Frontend(React)" style="outlineConnect=0;dashed=0;verticalLabelPosition=bottom;verticalAlign=top;align=center;html=1;shape=mxgraph.aws3.stack_aws_cloudformation;fillColor=#759C3E;gradientColor=none;fontSize=19;" parent="1" vertex="1">
          <mxGeometry x="-690" y="2120" width="123.13" height="98" as="geometry" />
        </mxCell>
        <mxCell id="wBa-HJRu5GUup8bWzJsI-2" value="" style="shape=image;verticalLabelPosition=bottom;labelBackgroundColor=default;verticalAlign=top;aspect=fixed;imageAspect=0;image=data:image/png,iVBORw0KGgoAAAANSUhEUgAAAUEAAACdCAMAAAAdWzrjAAAAz1BMVEX////u7u7t7e0A2P/39/fy8vL7+/v4+Pj8/Pz09PQA1/8A2f4A2Pz///0A1v///v/z7u4A2frF8Pgz2PPw7fC24um17/id5fF43/Ps7+2J5fbz7+z17uyB3/GA5vpN3vqq5O5f4PfQ8/jr+PnP5+rj9/vk6+yj4e79+PRF2/ek6vpp3O/P5utH3ffc6+xw4vnC5uvQ8PDP5PCP3+/X8/Ks7Pbc9P2/5uh74O/H7feG5fqw7Pq64+5p2/Vl5PzI6elp5/ia3/Mf3PSk4+eP4OxZfLuLAAAgAElEQVR4nO1dDWOiuNYWsIqQSCJUi9gqUq1Yv+7ttNtO29m7+87//03vOSdBQdHamc7szrTs7uwghCQP5zvnhEpFHScGHmZNnTXUWVWd1Uw6PdG3qjOztGFVnTUKDY1DDev5hoZuaBcbqhPTLhtc3cgPzj40uB8zq0ppkw8EPxD8QPADwQ8E6cj6Ml7ZVwZEeUM739D4VgSNb0XwrWeVHYZJRzZIdbZ+W3Ss+1JH1pc6y/pSZ41CQ+NQw3pZQ7t4q3lgcPVDg/sZs1Lv98SwVS/6NdXtvdifnFTUxRPVsFZoWFVn9awhndq6j4MNK/mGWR/FwemGxwzup80K+KTIIWXCyfwG4US3mj9fOB0SGD9mVuUIroWTmX9brxFOh4Awigia+YavQbAwuCMQ/DGz+kDwA8EPBH99BF9tYmzZJt9sYtTKGn6ziVE+uJ8yq5o6Gid01NVZVZ1V1VldnTX0rers5BUN7aMbNgoNTw41PDg4++fNqlKk3gMmhnk8axVNDPMor67Q8JtNjMMC44fMqlLa5MMvPn5WHwh+IPhLIGi8si/jPSJomIW+MtHJuccrtcAIzHCfzM035KD+DSOKoC9eeUmTmAUEX6FJzAKCBzVJ2ayO0iSFhoc1SUMddXVU1Vk1O6tOGuHsP4vGZFKvVou3ljacTKp37cfWIprkHlMvbVgt7/FAH4calt+6Z1Zv2vBwbCb677nPmGPJfrdV45FB77ScMAKgPTHr9KUF9zP2dSGONDFeQRhF1jrCcCqf1ZuS+yGvzq6cnEnHosNxmuxsFhphGOwTTmJ8lTJ9u2Ux2RFGQLz8u3t1exHkPPGbrrWGxLLc9DQQZX1xrzIZ30i4ha0Rt5wzEXrvGEGYe+IDEgQhwuIiOTrpH5EAbPk2gnZHOoie+sNy4R+LPfd4GRDvBEHb4zFRXlPCgbKQqNBynmcVz8sj6AGC/0kRaNdFCCVL4XaGjdvvggZVZGInisF5i7kOa7Kb2ThMho9fkEcRQktOPeBaHWLBvnhy4eAVt2nJtDNM7Ir96Rrvbvp6ssU+dMMDsZnNIHcHl0MwH2LRDY39DQ/GZjYIZrMqGdye2Ew1f9Q3f52kCIIcTvDn+mSS/OUTGQKVxQncqG8Fe2fIXOJahy0fqmDO4KVJF/F3pvXdpxd+2ndW/PngrWU3fUMf39ywsqbeYtAuWJFGuF2/XxGF7bTJCER5KsLs/UZ/SbpTOvEd37xfb44U65tGmIu9GccH7Qq36sEdRRhlDY8KRZYN7qjVzqxJUTgZ0VkTIEj52rUIjajCQV+QamHnkX5A7dpxEMJmOgTOz/k/dwC101yJnIz5vb267b5Mn0hwg6BJ1l2yZBZhGJscTnkyB/0BaoN16HTTF+d9vO9chO8VwRlDeyTZ7ovbbamMRD8BxO58wBP0tT+reVt98Q4R8bulQTFA7TonEsz1hXGGJCXLpumP+FAiQbrsOhC1ireF4BCRlmPxXhDcimKIr0BB7KyyhSBhGJyB3wuST96CleiCpd2Jwl1nldckUvEs2ItgSWzmOARLnNU9CL4cm9mH4IuxmQ2C2dKKjknopZXJNagMZzpRSyv6ojqpicmVBfQF+sMlO/Chl2uowxfw10mKbHy6brjuo3hWLTTMVppKb61/Z8NqoWH5ra9vuM/27KOsO42CcMf2NJFDUf2SFePIT6hBSkwMEaODR+ZQsY+XLWrzgEX9ijSxV1jU5ndY1EUOyYST3UfqWpULJwDsTiqV7KQj3Ze6lmOtHtpDTpfvcIhRIpy+xasrDO5f5hcDgqnluM5Q7OuLt5kKwvzh7UXwHGmwuwvEFoK/vF+8D0GwUpxLY19fI6mDXjLhe/oSN4jgxYs0+NsiaDmgSMsRxMAXWtFoXDfnNTRxSvqKbpDLP78bBLNBmmsEwRR5KEewwlOKJQDG8Eds80qZiaFo8E25uMTEOG5Z8EcYTmsEs0QTdah8EYM0icVWWYYIHTq1JPTsmEKo/oCRad31uO1lySzqVkwtEfdKk8BpsY8sQyXfY77h7q3Fs7o6yzJtCoPTt5bO6piGxwyuUby1kmFvFsIfUR80CXvK3m9Oi/NKdA64gTN8x1vIx468ioJdE4NXMGro3IjfPhM9a1JkLXGNQmyaNclRL+eDJjCvy1og/27RpHbYkwh3/B+Pf8FHDN6NV7eN4Dl6tZ85RaNzfXkev5MM2LM5QJ+Zdx0LdIpcGLt92X1cXjndL5x+bwSjDrpsX7YRxHiWj4EFdi8qeOotm+giz4Odvjin+NjqvSIoVg5AOC+JLMQOA1u7H6m+eD2l1ZNze6evBFen5Pj9xgdpRSTZjm7xKcb5mT/GtWCgUI/PyDmRD0iuPA/EkNYDzN1BlhlpvGqGJNe1gtRyHbuH55YhWG6kvaYq7GUEjWNMz+wwin2ZY4xNWUNPNSHdE4HkI1jA1O4JQbPjvHfKcHETfBM8ctGttqUjrMdkHnn1P/w09X1/rg5fHel8OR3WeGAU3f0CDaqzPdGtrVnt0uAb5LDuMzEoOIN2itbivGKLcEGyzU27F8vlcxw/X19fn3UBQavJnsemEKKeTcsUZxh7IKfuiEz0YPJgbfIjXFf/HfQ8HPcjnh/cD8lE/w7Dqcgha9bin3EGZ5EIo96EJ8N2ZxlLd53UQWkdoJLdJoCHcVZcavfjs07rrgakCsJJpAjAI2rsUtYyCqwVTlrwdFctm+Lj1F9xqQH+YBcoTvgWa20ERuUnlJHqWe0IjL05C7yN8VE/Gs+uzvsSRF+TkmEOHU1K+GAyXU4fFuaYYQDxU+U4v9istpi778Gu6/hD/g/7xSDlk/F4MTaPiixgXwkOnQF4DvluDrP2zlAftBwPdOc2HYf5c1TRskZ1kMcj6OqjwM6uy5hs8Ur4TyLIeQvzX+RAvIggjnPC7TsVgtYzoSU5dYrhf2JiC6lU0aVDaUkqt4ZudxSkKeoX+yjxTgi67FodS3XMfRfIH2F05Yj/s7EZ3oL3ydwjEDSMnvlw4bMcFyEaTZU30/TjZfdrZ3rbHuBx1ZlOby6WMcELpNJkGwIiCdafjjg3w/BIBP1I9CI4UMsD3/bGqzOpM8Hm/wIEYYS7CG5rLRFdZoNWBygMgKZ/cSORBuWsh6IN/hVRJEQgaJWEt2jNSX697oNidjYAIvLz23EveNHd1wiG4VrdAYZmIHqLVK+pTnv/rC7eQbDQUL+myKs9zjVwmOwGZCX7F7erhRn1zunXDl9HFDmBhw2DUFwjbqw1CcPZ09dnnym7kQSZ48gLsEdsOwyoZalFXT9lFDEjN9Jb148TkF9IoEhZt1UoMkcYOz5JNrhCH8fss5DrcachaW9xStzV3rfPgmLf8VSikFMEBBoY7Ii6zSemCMWfGGpw+rzM9gyDMCEAWAhUaYiokfQpmSsz65gTDz0ehLuzM7cQrNAif5G1ar7SU22VAFBWFXaUc/Z9Xt0GwXKvDm8xO3JtzDosjTG40Le5B01MIyVpOAKyK+srnDxSzuV5hCRpNGqUNBL7mqNdsBtjvW71agQ5f8JrrrPML8n8dL9YnLIDCHKgj96TbzWJdZnj9K/GvUumMMMmvStk0uZXTL4sDxDwPrC8ZV2iLjcnrSZSZDW8PJeootVrOUN5+HoEPW7M8dGu3EYQ9LxXj+gNhuCjH0CQw1N4g8Z2CEHwxFE2cX4SoPLbhD2CINjQIJwgOxUR9KLxM2sql4Cx6TgSRtij1N4p59DXmFKAU5vvR3AkHdD2aQ+FnfgfJlTHnhkGvdW1KghAbX4FRv3ruZj3vhKCbLRNSjDXuglmLug0nm+4iyDnk/oYHM+oJw4gKAx4KbUkSUJ4YpSjQTAPehmCdghnG4daDbECjKLYDbjtwYa3BXwrblQKIYjO6Aw5moFVCy/aDI0sGQYGFmRA8K7jAP0OMN8txJR01uYmmpe9cQelK7ooTrwQmDf8KgS5hwyEYfG7DYIhKgQ+mi59KZlk8/MHzCXjpQhG9eE09ske9p9vLsv9QLpRzG6XKd0o487MEDUaqncyu7y8nF0RF09Ho9nlbLYwwiKCU6XumPNlqFbe4BCXSDtsyOvBDJ2S5hclyc0gBLY2R8PWMPH4xt2vUaq1BLUSDUCJMFlbmxi1W5+o22r6qx7XCBZMjMkawUplx8QQl5Jc5aFCUF2beO0+014MjtPvJl7FCwsN0XCKFmCHOZmz4zZZ+qhq3XbiBMbTs3QztwgmPD+t04zBG8EAB5lbrqS/W9dmkKGHq2q9pUvJ9835Q0/XdmOQbpJaTemci8YkJia8jAJa1arZfNTF/H5Hpp3GelULM+bQ3vG4HYPidq6jhlryAsHRMG+YQzOVbXGy6WOzHNYibeGXLofZnxhZqKv84IZzVgznYBFQ6NUKS241O+lK19q4B0CvlkxnMJPttTo+jBGazTPhifEiwmsPm5gHAQxgLidZwwoZc6gEwCC+5SLHWl5lqsLMUQujqk5XqKvAVl1GDjAqSNlWmUcoRVL0nmVSGSEazdPM9rTBTBbR4tohQcsGvbBEQWoESSjsBO1ajK5STjE0BAriwDVgcKkSDRiciwwk44BrPiGpZgIs6Fyhla9dbBSnMMbTaKsqzIQHMvQg0YkkGkQ0mXwSgE9L/eBmfjtqxY2kCYPonBRwcw5mb9H/SSSYN3LQmyM7y0Q1CSu1GANb2vB2ZZcrBEOxctBpvufdJrFz0f8JRVuSa8hORR5Bs4BgqYnBOxYtDy4iaogo3TNHhRzmy273vk9cDnf8nZBJrnsM7UdkSwkiWMo0TX3pSEW48k+x5dV1SQRJDGIwFK14BmAB1kb4oIic4KewgOU88zWCQTRQiYAXnmfzIoKTZ/i92T8lJnjkalgBjy255gpo2ewoUgqM6Bnfoxyi8m3eiLAARGBWRnNCXi7EKxGMqSvfzIiXXzDFNZ1FgxK4a62YyJRhEsqaBqMpU9ZFfHU5DsOJnbS/aLJNwwKC4l4ZIkxeD+DWcXI3ndMrsYAKo4cYjznRYEp/j796m/jgguL5TheXPbZosH6KL5pJMO6cVIOOwyrGCZkccg9p0BALdIodfKBrXQZbQIQeT/pYMebEvTA4HsEw+uQqA71Hp6AgpwgfY/fjSAcIeE2c+mh2siXxsXqMmBIK8UpEQskmjFExDLEAZ+UQjDqqJkZeLATROT6j7VvEguAH0gpGi2TAoCdU2GONYHROeHR1IL2AYFVl9CMeLLPFw7HcDrQ686yhoIdRlOs52rX3PZ3774BAOxpB80TE9PabAzKegYuHJKPYVdDbLF4E0cynKFhrTYNGyPvAkLc8ys2KJymJw3SSqX1DnMyUMyZbmSKgasEEWw96L8Vm1JKSKhzZiWIokxAhTMEAoEu9r80tAMFGaWkTI0w0fzMHZHVZKmpCBaD9PIKb2AwhuLMUIe5VDYs/1vU1gAuyRqeHgZx1dCsQC4TQ8u11jwFPmLzjPD8rzodYFOOycUaDZhj1SccCLxViM7w2l/CugxdiMy2U/mwkymq7G5NEOirKssLEYbqWbgGIOvl+ogu/JzeKKq20XqtvMo43ReGTDrC520y2K9bJogZRt1NqPqmeWSQW2F+TOj1o8khxs+WEuqhu+pi0UJs6t1XdI/RfHdxNdurwl2QStNZ9eC1lsLd7jZNC/5PRCLvQDbVPsj2rSheF3JIbyozYEAaxFopsxafrivVkh4mRhHXOglcNVXpw81ERBj00v9oZhEilTgv5nvrI+yRAQKoa1BNwRCICMmjPmSbBdbzUx19kQnmLhdVOvkS7dx7mqsKi0Nye1eQRh8Aoowcbempdkp1FQc6ZMRUcqsYDG27FZjarnTHGUNtc8fROFAO8XULkaS2c7hy2i6Bc71QRdAhgWdsgWMhZCCLU7+6Ul3l1QINtdVD8e3A1Xf5N1geaJH8GCkGO9i2T5xONoLGWnJwEpASzMfO4TsIg2J3VJ9JLnUg35COlxhfGnsDRC9EtTKa0WlurOFlfoJ0p4CqDtV4Ylq2pSZ27ZTeCGWn2L/lkh8KKO0VqnT0IovnA9AKTq6stXIrTYn6YRvCMKGa2G90CDdnHe282CFIXKrKA9kJAsxrRy+qIDEGl2c96uwjm64z2IrgE+6I5LafBhsc1YEjyCsFRCYKOr7mYV6MzRYOjzW4pBQRFRLbdbWlkgcQqmcbq3+z9gDO6irLFC4/0xVyUxQf5FLGZG5nPSn2EwuY8STifRCdlCFZisgT/G5UheAQN4gtgqReUI+j9T80DrQw1yBpr7kL4LCa6r/8qKdm830eDC7o83KVBt4S2FaTK8DM1DY50KLcUwRZFwcZ5GozGA5AFQNtyfn4ail0E68qWVqbSNyBImTBOOzILCGYZJqMsSWEQ6U0++BdWFIQuqKKbngZiokgQWDGh8EcRwSAMes+Y/yprfCu5Wcdm0E4Ge5f+IPIDZzftXiqhrxBsUadXvayhUIfqf0Re3OVak4RifO5biqzxif75IqqOSBmuESQv3lLm+oGUbYWgu4tgVYfvJ2UV45PPGiVLNrIC75ZTJBaMBI6yi5frBeNp+QMfMSZhne9cnDypGBVoAookkfMF/8WDy0axUH5K/cfn5106zvWhzs4IjYfNY/8AFzdbrcG0EssfTEiTWJ3ssS2iwc+l480f2h7cLq6vBAOimn4tj33m1QXadHFl89bT2Ef9LSHoNi9ASis18Uy/UBxtHAY7axBYTobhj0WpXwwD/Hu8wNSKcZIkJO6kb4rQ5DmHSdwgtC7TYnITz7NUlEbRifLEQ68tLeWvwTuRtJ2LK88vFYKqfzsakLWpT7U+KEsTI6TLVtzFHMOnzjxBD30rsjBAY5GpHRfsDME7aeX52GHSVrGZQKwIhpj4/HTbLw7Q2sCSUeemtzeysFaQHFOR4DHXvaAgnKJzHahj6sgip/oMf3B0EMSIhpLEgitvVotxmIzaS9mUbkyh4AzBHoU12W0pguq04NUF2wgG0SUjXxUzNLb94hg55poMlGaXZ0C0UfatxSCmF6m+wih1wEORdcpB70fbkQV+q83zQnywiGCQIejZFyqadxoVEdzQoIbOLRxoLE71UMf07pnsBiIKBO1gkqzXIzMEhaLBoxEsyfoQp5IkF2tt0SCYmm4TLLHe/yg+OFLXDCQPYlSKsjr+iGsahLEgi3YQYnj1l8W3FY3BcMLNF8C/3Y9gFlmgjG16RXIhigiSvOx3z/RxoY782VAhGP3FVFQcQ7ohyCbcGoeP5oqF1lx8im/EKefi4xAMoyumALmo94INgh6/IfcpbAypbmQplNkNF0ZL5qA/DbB3ldWJ8cGQpuzbvIbLds2bSPfloSUbPf1NcdemP4uC/QgaGsGKqn5EcjnLNp9SCF6p+XOthKsZKeVUsg7qRD7OmU2348Zzq0CDK9LVejH6mxA0zd6V0leOHERo1ugohodRewAi4BcooeVKwYt17nw0fU5lej1YaCkPQFAhnQUeIuddCvdnIRZcjL58ZsT5zfnoJDjAxehwZil6/AvtWsWeVNxZqTmasAUTfmG7TdMQM3yRVmpv68eiJgkWTEWnFIJmAUF6E+ZhBFUQ4g/M0MB8tnQ1oYAJBh6GJNVmjUktQTXkpOuYBO3hg+3y+/YtKDIyh8u1EaW1PlQxPlKv1SaLZ5L9QOZxY10/XgiY1JWm8wsXMVaGlk2DojK64UIHccp3A1QBE3XrAF+K05lk4ZssfjRTmiSLGJ1ICq4mtXXD0v0Ha4SgNdjeqlDjWVnMVZaL25y3vEojMM1Q5RrNccWdqgx1wfqejXc4XzrwCGeF642TPvQGRo5pgoyIVktKNUT981WI0Cs2VOS2zjzKr3aKW5UGfI9JAuuEKjJgrctNyvZORFEPjiLU7kpshyIzn0Q35MsmavJBhBMrziqfJpbzSfQabv7gXIivpNSxrNifLsSJCAOKlj7iinsQpijz1O4p5TkLlRbR3RnF06uPpGrqRpDblZA100sRhq/JWeBzFZg5RdGpEeS4JiTBKNcI5iQniNzN4ECWkEKbrUvWsnhJ0avjIG9xoWoeFKJbeW13ROaRx+GOSwrDYImSxeLBuLei+sMR0mAoTptoKC8xolSCINJgCnc7DBeRjKCR0I5HrfHpNdPprCDSriKQgMGrsj5G5ONZPhb2ZAgOKRYlExWlLyDoZSkUCmoLPZzL4DCCuCsJlUr/IbYHF9b5EbGZdRNwugfrNWyQC9cxYhZzRNAU4prigq3S7DcMW05JFalhhQ2O21S4tCqvSNuRn5OonHgP0SDvqkWms2iDYGOOjlpzuRMfxA2FcoPjtyR8waM/jCBSNfaRjo0tBgnqygrIIVjiF28QBPoIH/0scxrmjHY2LgbbETDfgtDFyGkZDRoj3KIQdI0whOhFIZg7Op2aciHA6Em4F+w2fAFBj9tkerjySawRjE5RZEvW3qXBCj8VWR8qMudaz2I76rmNoN7zADceymdghkFv2t1C0LVuD1SFBbjI77VR9GT7NeI77HcfVwtT9K6YKrHhaIuAxPDIDlQ2eBDNMc+DjSbmYtU5S3WsT8V+QcHfEssZRQTzJgaflNMgwEC+HfNzNU29a0bRqhbeu0YQq9KSmK3Q+FR91JSSnWEBGzU0CZfJrbIHNzSIohVXSu8JQZzWCeYGiSsJlI61brQiqkbYRU0S5qP8KnlkUz/O7U+fSZ9or5f+Y356TZpZWq3aicBcsB6toU74JOqdhOFflEftL+cyc/mV7kX9c7aq8Vquj2L9uCo8r03UG/bpYi1XeF67wFU02gNt3XBBKQpMduDBmy81cBszhGQYZBXr3j1JrjjgtVrWYxhECkBAMEvRqdVqfUZ+WbzAE8q7ESdhVwINxFVVFR9EK5raHAYHXUTrqvjtnG1MNYzGraXeJi+f20P+qMPkPP6yXGZu1HL5Je6naoNM1gTMmLrR0kS4bCccFxS3EqrMnU0BM69uJ6FqLKmahQ03DflQEouwdGVqlexF5mlM4owWGJS9Qduvudb/xiJcG07JZ1cWLGpchxULSatPlrxZmBG4NuBXteZUMMhuIm1RjyhMIf/qoXvdTbwMOc1ahfRwUeP1FlEf04UkayCRxR2sJnEK/7O24NaN5Qj5xyvVPQcyjwohCTGQlMGS2idqQREbtiWtn8Dr7AxHSS0Zte59ijUwltufJfqMcQZwNAehiLDojycdH55WRBAYGzwdVTAAXBafXw0G0/tUk01/rGuaOFgbqLPZdbv9GXiRb7y6XQSxKoyC6S5VIlC8wDrycKneTs7PKcQ13GRSHVFPUoZgaETPisK7PR049ip2paWwwaQyi3IwLZXmqjZCzOKD9hfaXhIti78Ali4Jmb+fSHFsEMSjdydVbJHefJYF54KCjjK/mOzLrOjIWnovIYg2sZX2wtngPIZ+m84LVXVEeQ6KzLjb/jTu9eImMEGHv6aurpQGjYAye1zprqLcIm4SW0rkIlO6ll6cSuGV4e7EOknKxhQlNKZcpnK9UDMmiy0aVEAksUMpbowKOFT0jJ2FqG909CKhiCXZjiBwRy8g6C0RkXMw00XU4MAlt93lPKUt4y1Ks6N+LMWs9D+//3zeaY0SrPmoYw4x/rg8ngaJ8Utzt8Stmr1fCElUBylTsCGxSOQUfxDoIITu0fb4o0p/pbRATKyd8volxWU7vIgg99qpjtK6pOsZmz/S4sm6AuUPJqlKDW0MeWcUESzKKKBBzBl0BvSEBhXfcA8cyRjVK+u3b6fTGzg6navbFoUxnesgOolEXaX4AoIhZWarHISXETSqQ0oqu1airpgebvILutj/v3xYrAq641qyDB7Gzk6D9ULxJteJJ9M5sTv6J3M0q6qLOJ3P08E2gpzbD5gcx5Twl3HbFkSC6+KfYNanqyBKl8mWHNwpNEqI0i+xDClocBuMnIptCGOhbE+0xCKsChOR3VYp2GMSPFW+NnMXtDaAhcH5CqVNHwVNIqo2WUc1leVeKDQKVboZ51GQb1gNRdgbXw6mF/f3n6etS1AWRnhS2IUdZoVJkfbl1TmYDTcPCdU6UGY+cJZaTV8PDksoOR+v4N7rs+7tEG72Tsw8Ddah4Z9XcPUzGBhZJvvaLNwqdjNmZFWrweZztjF+AMDMRLaovSChK4fKS83VrHFi7lnwgwvPa2idRllG6sEde6rFhvuDOpUK0MZ2bGY9OA56fSc2s7tbCi2/lO3D+hmVnsPCrGKLdrp0vk48gjC3W4rebyYyiivu72WvD7Vx29n2fjMeQBg7uPlBGpEbhZunAA3GuvKisN/MErHt9H5BBL03QFDco08y3d1vBoxSNNUtdgZg2rzr0G7Ui92+0HyC4/xXRPBNduyhncseS/rifMYc3LJiymktiLmO+4fY3fOowm9xa4brd4bgWkFGKbqEDyVBTFxgVRZgmw9phY8Su3aA8NReF7HYGeQbbsBxHILl9cXFhod37CkM7sjvuNNeJ8MM9KLW6lF2NWNTiYGE5pko1Vq8RWV50W+/e17x/W72wMQ9Oy5V2uzuHphLlXzgsiZzYrWLaD7DBC1qUzw5uqR726IuTxPToztEGLsJVS98XHBrVmUNf8yXrsx6DYv5nLty1kKF3LR0KGZeq3BeJpzEE4I837djzx7h9DJrffNuyj9G5O7dyRZjMs5ob19JltEvR3v2Ag4JQauMBosIFsz+X3gn2929gEEO7tlN2aNwo0JwwPcgaAhMq3Pjd4wgc5wHJbJ2EPQqI7/pqoTpB6om2+3LFLSxwPK9IljpYwzrySjti/P/rAOuTdnm5X1FlLT/8q7yvzyCe0yMJSgSRydG7GyK01a5ohTEbaJpXWZi0JcNrM2XDf7d33H/DsOpfB9mMPnA7TgDv217k+iaJ77iTmauJR9Ti7ZFvzeEsbvXc81Hn2S1u9fzKzaJrnzzJtFHN/zera811jusJQZoq/je5jtNZAdh3lvyjOUQWEbM6XM5oLPTy/yVtG8AAAPKSURBVGjX/xnRosIixyEHvbpXGGnq7JCRtkdgFBq+Zg/Mzawqx/rFKj5qjbxcYQ3FZiqY2408jKmrdg3rhTF2Ppjs9HX7vr/TZERk8N0Uo1tAgEsSf8xNVXGpvaTcKofFIypbzvri9K0wxz2L3i2CqtZaFhDktanUi4BnoS6B4X+pbKWmnNp8sxcw5y1ak1m936+tiT/pg7FdjM5QE9ELH+fqi6aYLLx+QPTk44o77uPStjd91TB3xk3NfF//DgTf6nM8u98KK5gYQdhLqcDqFkRfHUt9F18l05kI6UzkLAWxiB2V6OGktwluqBQaVdqU33WuRMHEeO1XJ43i4L7hq5OvMJxe8dXJwuDW33EvfoerXlffm2uy+PRytGh155gJiHnVLptOMDd6k3Fcq93SNigO7urT7zyMkrvblByWtH7oO1z1H/gBr/JZvelnybKL+3wSXuHdJka4VK0VBQRp763rBZo0PMdacI4KxlGZEs46fcax/jzmK+Qlwunf8x33osA4Prql60li5mw2lnFoT9D0SZT05VX4w872Cxa76ZUCsYXgL+/V7UeQ1+JCvpHD+qdhFJq7fQEVNszTdGsfmk50lJn7+yKIu+x3dKUOLap3Z5HAjILKTvWPhwV5kVjRVk6UUWM105UQJ8dw8e+LIPbVGz89Y0lMupx+4nongf19icD8cxr7DHPfVgZYgu+DBlVIY5+JgZkxZkIf0uDln0rPmRhhGNYxfyexJyLA3XRKduypvD42sz24A8s/24PbM6ui4fTCrPYbTurQ33Hf81V0ukDXGvDPwY+rZ991xxv12da1V3xO/Yc0PHjrnjvK5rF1VllT7yHCKG7lVLQ9Cw0P2p7fblH/mO+4v82sKusmBeGkzt7Yg/x3eHU/yy/+QPADwQ8EfzUEf2IqRrHh26Ri7EHwp3zHfWfDv+3a7s1uhKW3NspuPaZh6a3VQ338kIbfPatD5YJvnKNzPGHsi828SBjHfNjtp2Qe/Rj/53f16j4Q/EDwA8HfBMFskCUy962+eP5DTIx/z3fcs9UTnS+il1Z0voi+WLh1nVpSaJit+xxoWN7H2za0j2j4VrOqrAljf/jjrXK2Sxsek1D1mtXOoxv+4O+4G8ezVlE4qbP36NV9IPiB4AeCvxmCP8NI+z4T41u+4/5DZqU7BqOGfi7LcrLrxsmmiW2rMyNrqG4tIyW7VmhY0Q1tddbIN7QPNjw8uHzD7cH98FlVfm7Otjp+t0z0Iof80wWXR7DWnoLLV3h1bzqrD7/4I7LwgeAHgh8IfiD4nQj+P4TYeS7dDs6oAAAAAElFTkSuQmCC;" parent="1" vertex="1">
          <mxGeometry x="-420" y="2120" width="245.35" height="120" as="geometry" />
        </mxCell>
      </root>
    </mxGraphModel>
  </diagram>
</mxfile>
